name Run_300 01_newCOP3_v24.mot
datacolumns 19
datarows 15
range 4.00000000 4.01458300
endheader
                time	   R_ground_force_vx	   R_ground_force_vy	   R_ground_force_vz	   R_ground_force_px	   R_ground_force_py	   R_ground_force_pz	   L_ground_force_vx	   L_ground_force_vy	   L_ground_force_vz	   L_ground_force_px	   L_ground_force_py	   L_ground_force_pz	   R_ground_torque_x	   R_ground_torque_y	   R_ground_torque_z	   L_ground_torque_x	   L_ground_torque_y	   L_ground_torque_z	
          4.00000000	        144.44952400	        472.12048300	         17.16955200	          0.83373700	          0.00000000	         -0.26990700	          0.00000000	          0.00000000	          0.00000000	          0.00000000	          0.00000000	          0.00000000	          0.00000000	         -4.56353500	          0.00000000	          0.00000000	          0.00000000	          0.00000000	
          4.00104200	        140.99110400	        455.15310700	         16.75394100	          0.83164300	          0.00000000	         -0.26983300	          0.00000000	          0.00000000	          0.00000000	          0.00000000	          0.00000000	          0.00000000	          0.00000000	         -4.43158300	          0.00000000	          0.00000000	          0.00000000	          0.00000000	
          4.00208300	        137.48439000	        438.54193100	         16.32373800	          0.82958500	          0.00000000	         -0.26975000	          0.00000000	          0.00000000	          0.00000000	          0.00000000	          0.00000000	          0.00000000	          0.00000000	         -4.29474700	          0.00000000	          0.00000000	          0.00000000	          0.00000000	
          4.00312500	        133.94102500	        422.29879800	         15.88151800	          0.82756700	          0.00000000	         -0.26965700	          0.00000000	          0.00000000	          0.00000000	          0.00000000	          0.00000000	          0.00000000	          0.00000000	         -4.15349800	          0.00000000	          0.00000000	          0.00000000	          0.00000000	
          4.00416700	        130.37246700	        406.43319700	         15.42977900	          0.82559100	          0.00000000	         -0.26955200	          0.00000000	          0.00000000	          0.00000000	          0.00000000	          0.00000000	          0.00000000	          0.00000000	         -4.00831600	          0.00000000	          0.00000000	          0.00000000	          0.00000000	
          4.00520800	        126.78987100	        390.95211800	         14.97092300	          0.82365900	          0.00000000	         -0.26943300	          0.00000000	          0.00000000	          0.00000000	          0.00000000	          0.00000000	          0.00000000	          0.00000000	         -3.85968400	          0.00000000	          0.00000000	          0.00000000	          0.00000000	
          4.00625000	        123.20400200	        375.86010700	         14.50722400	          0.82177400	          0.00000000	         -0.26929900	          0.00000000	          0.00000000	          0.00000000	          0.00000000	          0.00000000	          0.00000000	          0.00000000	         -3.70808800	          0.00000000	          0.00000000	          0.00000000	          0.00000000	
          4.00729200	        119.62519100	        361.15921000	         14.04080200	          0.81993800	          0.00000000	         -0.26914800	          0.00000000	          0.00000000	          0.00000000	          0.00000000	          0.00000000	          0.00000000	          0.00000000	         -3.55401800	          0.00000000	          0.00000000	          0.00000000	          0.00000000	
          4.00833300	        116.06327800	        346.84912100	         13.57360400	          0.81815400	          0.00000000	         -0.26897600	          0.00000000	          0.00000000	          0.00000000	          0.00000000	          0.00000000	          0.00000000	          0.00000000	         -3.39796100	          0.00000000	          0.00000000	          0.00000000	          0.00000000	
          4.00937500	        112.52752700	        332.92746000	         13.10738700	          0.81642400	          0.00000000	         -0.26878300	          0.00000000	          0.00000000	          0.00000000	          0.00000000	          0.00000000	          0.00000000	          0.00000000	         -3.24040300	          0.00000000	          0.00000000	          0.00000000	          0.00000000	
          4.01041700	        109.02658800	        319.38980100	         12.64370300	          0.81475000	          0.00000000	         -0.26856600	          0.00000000	          0.00000000	          0.00000000	          0.00000000	          0.00000000	          0.00000000	          0.00000000	         -3.08182600	          0.00000000	          0.00000000	          0.00000000	          0.00000000	
          4.01145800	        105.56842000	        306.23013300	         12.18389400	          0.81313400	          0.00000000	         -0.26832200	          0.00000000	          0.00000000	          0.00000000	          0.00000000	          0.00000000	          0.00000000	          0.00000000	         -2.92270900	          0.00000000	          0.00000000	          0.00000000	          0.00000000	
          4.01250000	        102.16021700	        293.44097900	         11.72909000	          0.81157700	          0.00000000	         -0.26804900	          0.00000000	          0.00000000	          0.00000000	          0.00000000	          0.00000000	          0.00000000	          0.00000000	         -2.76352000	          0.00000000	          0.00000000	          0.00000000	          0.00000000	
          4.01354200	         98.80831100	        281.01379400	         11.28020700	          0.81008000	          0.00000000	         -0.26774400	          0.00000000	          0.00000000	          0.00000000	          0.00000000	          0.00000000	          0.00000000	          0.00000000	         -2.60472200	          0.00000000	          0.00000000	          0.00000000	          0.00000000	
          4.01458300	         95.51811200	        268.93924000	         10.83795900	          0.80864400	          0.00000000	         -0.26740600	          0.00000000	          0.00000000	          0.00000000	          0.00000000	          0.00000000	          0.00000000	          0.00000000	         -2.44676600	          0.00000000	          0.00000000	          0.00000000	          0.00000000	
